<svg width="68" height="18" viewBox="0 0 68 18" fill="none" xmlns="http://www.w3.org/2000/svg">
<path d="M0.596588 4.74751V3.0909H9.30042V4.74751H5.92862V14H3.96839V9.37375V4.74751H0.596588Z" fill="#FF4040"/>
<path d="M20.7262 8.54545C20.7262 9.72088 20.506 10.7276 20.0657 11.5657C19.6289 12.4002 19.0323 13.0394 18.2759 13.4833C17.5231 13.9272 16.669 14.1491 15.7138 14.1491C14.7585 14.1491 13.9027 13.9272 13.1463 13.4833C12.3935 13.0359 11.7969 12.3949 11.3565 11.5604C10.9197 10.7223 10.7013 9.71733 10.7013 8.54545C10.7013 7.37002 10.9197 6.36505 11.3565 5.53054C11.7969 4.69247 12.3935 4.05149 13.1463 3.60759C13.9027 3.1637 14.7585 2.94176 15.7138 2.94176C16.669 2.94176 17.5231 3.1637 18.2759 3.60759C19.0323 4.05149 19.6289 4.69247 20.0657 5.53054C20.506 6.36505 20.7262 7.37002 20.7262 8.54545ZM18.7393 8.54545C18.7393 7.71804 18.6097 7.02024 18.3505 6.45206C18.0948 5.88032 17.7397 5.44886 17.2852 5.15767C16.8306 4.86292 16.3068 4.71555 15.7138 4.71555C15.1207 4.71555 14.5969 4.86292 14.1424 5.15767C13.6879 5.44886 13.331 5.88032 13.0717 6.45206C12.816 7.02024 12.6882 7.71804 12.6882 8.54545C12.6882 9.37287 12.816 10.0724 13.0717 10.6442C13.331 11.2124 13.6879 11.6438 14.1424 11.9386C14.5969 12.2298 15.1207 12.3754 15.7138 12.3754C16.3068 12.3754 16.8306 12.2298 17.2852 11.9386C17.7397 11.6438 18.0948 11.2124 18.3505 10.6442C18.6097 10.0724 18.7393 9.37287 18.7393 8.54545Z" fill="black"/>
<path d="M21.2336 3.0909H23.4655L26.1341 7.9169H26.2407L28.9094 3.0909H31.1412L27.1728 9.93039V14H25.202V9.93039L21.2336 3.0909Z" fill="black"/>
<path d="M42.2887 8.54545C42.2887 9.72088 42.0685 10.7276 41.6282 11.5657C41.1914 12.4002 40.5948 13.0394 39.8384 13.4833C39.0856 13.9272 38.2315 14.1491 37.2763 14.1491C36.321 14.1491 35.4652 13.9272 34.7088 13.4833C33.956 13.0359 33.3594 12.3949 32.919 11.5604C32.4822 10.7223 32.2638 9.71733 32.2638 8.54545C32.2638 7.37002 32.4822 6.36505 32.919 5.53054C33.3594 4.69247 33.956 4.05149 34.7088 3.60759C35.4652 3.1637 36.321 2.94176 37.2763 2.94176C38.2315 2.94176 39.0856 3.1637 39.8384 3.60759C40.5948 4.05149 41.1914 4.69247 41.6282 5.53054C42.0685 6.36505 42.2887 7.37002 42.2887 8.54545ZM40.3018 8.54545C40.3018 7.71804 40.1722 7.02024 39.913 6.45206C39.6573 5.88032 39.3022 5.44886 38.8477 5.15767C38.3931 4.86292 37.8693 4.71555 37.2763 4.71555C36.6832 4.71555 36.1594 4.86292 35.7049 5.15767C35.2504 5.44886 34.8935 5.88032 34.6342 6.45206C34.3785 7.02024 34.2507 7.71804 34.2507 8.54545C34.2507 9.37287 34.3785 10.0724 34.6342 10.6442C34.8935 11.2124 35.2504 11.6438 35.7049 11.9386C36.1594 12.2298 36.6832 12.3754 37.2763 12.3754C37.8693 12.3754 38.3931 12.2298 38.8477 11.9386C39.3022 11.6438 39.6573 11.2124 39.913 10.6442C40.1722 10.0724 40.3018 9.37287 40.3018 8.54545Z" fill="black"/>
<path d="M46.6583 3.0909V14H44.682V3.0909H46.6583Z" fill="black"/>
<path d="M51.2995 3.0909V14H49.3233V3.0909H51.2995Z" fill="black"/>
<path d="M58.2157 12.3434L59.2512 12.3434V14L53.4703 14V12.3434L58.2157 12.3434Z" fill="#4456FA"/>
<path fill-rule="evenodd" clip-rule="evenodd" d="M57.275 12.3434H59.2512L58.2157 12.3434L57.275 12.3434Z" fill="black"/>
<path d="M58.2157 12.3434L59.2512 12.3434V3.09091L57.275 3.0909V12.3434L58.2157 12.3434Z" fill="#4456FA"/>
</svg>
